<mxfile host="app.diagrams.net" modified="2023-09-13T16:16:35.726Z" agent="Mozilla/5.0 (Macintosh; Intel Mac OS X 10_15_7) AppleWebKit/537.36 (KHTML, like Gecko) Chrome/116.0.0.0 Safari/537.36" version="21.4.0" etag="ALiMr0YerosadhjTQkDF" type="github">
  <diagram name="Page-1" id="4x69nAjxfpAVCU48uGbt">
    <mxGraphModel>
      <root>
        <mxCell id="0" />
        <mxCell id="1" parent="0" />
      </root>
    </mxGraphModel>
  </diagram>
</mxfile>
